<?xml version="1.0" encoding="UTF-8" standalone="no"?>
<!-- Generator: Adobe Illustrator 16.0.0, SVG Export Plug-In . SVG Version: 6.00 Build 0)  -->

<svg
   version="1.1"
   x="0px"
   y="0px"
   width="1400px"
   height="980px"
   viewBox="0 0 1400 980"
   enable-background="new 0 0 1400 980"
   xml:space="preserve"
   id="svg434"
   sodipodi:docname="dogfamily.svg"
   inkscape:version="1.1 (c4e8f9e, 2021-05-24)"
   xmlns:inkscape="http://www.inkscape.org/namespaces/inkscape"
   xmlns:sodipodi="http://sodipodi.sourceforge.net/DTD/sodipodi-0.dtd"
   xmlns="http://www.w3.org/2000/svg"
   xmlns:svg="http://www.w3.org/2000/svg"><defs
   id="defs438" /><sodipodi:namedview
   id="namedview436"
   pagecolor="#ffffff"
   bordercolor="#666666"
   borderopacity="1.0"
   inkscape:pageshadow="2"
   inkscape:pageopacity="0.0"
   inkscape:pagecheckerboard="0"
   showgrid="false"
   inkscape:zoom="0.45738583"
   inkscape:cx="698.53498"
   inkscape:cy="507.23041"
   inkscape:window-width="1296"
   inkscape:window-height="928"
   inkscape:window-x="90"
   inkscape:window-y="25"
   inkscape:window-maximized="0"
   inkscape:current-layer="svg434" />

<g
   id="OBJECT">
	<g
   id="g431"
   transform="translate(36.214862,-8.2306505)">
		<g
   id="g201">
			<polygon
   fill="#789fb0"
   points="199.757,791.727 221.904,230.962 1216.562,187.133 1216.562,791.727 "
   id="polygon5" />
			<g
   id="g23">
				<rect
   x="609.80798"
   y="193.83099"
   fill="none"
   stroke="#fdfdff"
   stroke-miterlimit="10"
   width="77.626999"
   height="547.43103"
   id="rect7" />
				<rect
   x="630.04102"
   y="193.83099"
   fill="none"
   stroke="#fdfdff"
   stroke-miterlimit="10"
   width="38.165001"
   height="547.43103"
   id="rect9" />
				<g
   id="g15">
					<path
   fill="none"
   stroke="#fdfdff"
   stroke-miterlimit="10"
   d="m 630.078,255.949 h -44.169 c 0,0 -16.569,3.307 -15.764,22.798 0.808,19.491 33.052,25.848 38.856,6.515 0,0 4.833,-17.723 -13.311,-17.723 -8.171,0 -10.938,11.742 -6.964,15.985"
   id="path11" />
					<polyline
   fill="none"
   stroke="#fdfdff"
   stroke-miterlimit="10"
   points="586.715,255.949 575.812,243.373 609.808,243.373             "
   id="polyline13" />
				</g>
				<g
   id="g21">
					<path
   fill="none"
   stroke="#fdfdff"
   stroke-miterlimit="10"
   d="m 667.392,255.949 h 44.169 c 0,0 16.569,3.307 15.763,22.798 -0.806,19.491 -33.051,25.848 -38.855,6.515 0,0 -4.833,-17.723 13.311,-17.723 8.171,0 10.938,11.742 6.964,15.985"
   id="path17" />
					<polyline
   fill="none"
   stroke="#fdfdff"
   stroke-miterlimit="10"
   points="710.755,255.949 721.658,243.373 687.663,243.373             "
   id="polyline19" />
				</g>
			</g>
			<polygon
   fill="#96bbcd"
   points="185.006,791.727 209.936,187.133 616.371,167.408 616.371,791.727 "
   id="polygon25" />
			<rect
   x="263.98999"
   y="239.96201"
   fill="#789fb0"
   width="255.47301"
   height="447.276"
   id="rect27" />
			<polygon
   fill="#cbe6ed"
   points="181.281,791.727 181.281,693.597 1216.562,686.67 1216.562,791.727 "
   id="polygon29" />
			<polygon
   fill="#e5cebc"
   points="1006.957,515.604 1014.035,571.465 996.844,756.734 1248.664,761.662 1235.518,515.604 "
   id="polygon31" />
			<polygon
   fill="#f65448"
   points="1216.562,515.604 1179.324,515.225 1191.514,469.054 "
   id="polygon33" />
			<polygon
   fill="#212639"
   points="1112.753,515.604 1191.514,515.154 1210.599,434.737 1131.84,434.737 "
   id="polygon35" />
			
				<rect
   x="253.85899"
   y="301.138"
   fill="none"
   stroke="#212639"
   stroke-linecap="round"
   stroke-linejoin="round"
   stroke-miterlimit="10"
   width="15.42"
   height="37.977001"
   id="rect37" />
			
				<rect
   x="253.85899"
   y="560.146"
   fill="none"
   stroke="#212639"
   stroke-linecap="round"
   stroke-linejoin="round"
   stroke-miterlimit="10"
   width="15.42"
   height="37.977001"
   id="rect39" />
			<g
   id="g53">
				<polygon
   fill="none"
   stroke="#fdfdff"
   stroke-miterlimit="10"
   points="296.859,364.235 374.473,364.235 374.473,267.138 296.859,271.138 "
   id="polygon41" />
				<polygon
   fill="none"
   stroke="#fdfdff"
   stroke-miterlimit="10"
   points="308.879,349.195 362.453,349.195 362.453,282.17 308.879,284.931 "
   id="polygon43" />
				<line
   fill="none"
   stroke="#fdfdff"
   stroke-miterlimit="10"
   x1="296.85901"
   y1="271.138"
   x2="308.879"
   y2="284.931"
   id="line45" />
				<line
   fill="none"
   stroke="#fdfdff"
   stroke-miterlimit="10"
   x1="362.453"
   y1="349.19501"
   x2="374.47299"
   y2="364.23499"
   id="line47" />
				<line
   fill="none"
   stroke="#fdfdff"
   stroke-miterlimit="10"
   x1="308.879"
   y1="349.19501"
   x2="296.85901"
   y2="364.23499"
   id="line49" />
				<line
   fill="none"
   stroke="#fdfdff"
   stroke-miterlimit="10"
   x1="362.453"
   y1="282.17001"
   x2="374.47299"
   y2="267.138"
   id="line51" />
			</g>
			<g
   id="g67">
				<polygon
   fill="none"
   stroke="#fdfdff"
   stroke-miterlimit="10"
   points="489.624,364.235 412.011,364.235 412.011,267.138 489.624,271.138 "
   id="polygon55" />
				<polygon
   fill="none"
   stroke="#fdfdff"
   stroke-miterlimit="10"
   points="477.604,349.195 424.03,349.195 424.03,282.17 477.604,284.931 "
   id="polygon57" />
				<line
   fill="none"
   stroke="#fdfdff"
   stroke-miterlimit="10"
   x1="489.62399"
   y1="271.138"
   x2="477.604"
   y2="284.931"
   id="line59" />
				<line
   fill="none"
   stroke="#fdfdff"
   stroke-miterlimit="10"
   x1="424.03"
   y1="349.19501"
   x2="412.01099"
   y2="364.23499"
   id="line61" />
				<line
   fill="none"
   stroke="#fdfdff"
   stroke-miterlimit="10"
   x1="477.604"
   y1="349.19501"
   x2="489.62399"
   y2="364.23499"
   id="line63" />
				<line
   fill="none"
   stroke="#fdfdff"
   stroke-miterlimit="10"
   x1="424.03"
   y1="282.17001"
   x2="412.01099"
   y2="267.138"
   id="line65" />
			</g>
			<g
   id="g81">
				<polygon
   fill="none"
   stroke="#fdfdff"
   stroke-miterlimit="10"
   points="296.859,497.812 374.473,497.812 374.473,400.715 296.859,404.715 "
   id="polygon69" />
				<polygon
   fill="none"
   stroke="#fdfdff"
   stroke-miterlimit="10"
   points="308.879,482.772 362.453,482.772 362.453,415.748 308.879,418.509 "
   id="polygon71" />
				<line
   fill="none"
   stroke="#fdfdff"
   stroke-miterlimit="10"
   x1="296.85901"
   y1="404.715"
   x2="308.879"
   y2="418.509"
   id="line73" />
				<line
   fill="none"
   stroke="#fdfdff"
   stroke-miterlimit="10"
   x1="362.453"
   y1="482.772"
   x2="374.47299"
   y2="497.81201"
   id="line75" />
				<line
   fill="none"
   stroke="#fdfdff"
   stroke-miterlimit="10"
   x1="308.879"
   y1="482.772"
   x2="296.85901"
   y2="497.81201"
   id="line77" />
				<line
   fill="none"
   stroke="#fdfdff"
   stroke-miterlimit="10"
   x1="362.453"
   y1="415.74799"
   x2="374.47299"
   y2="400.715"
   id="line79" />
			</g>
			<g
   id="g95">
				<polygon
   fill="none"
   stroke="#fdfdff"
   stroke-miterlimit="10"
   points="489.624,497.812 412.011,497.812 412.011,400.715 489.624,404.715 "
   id="polygon83" />
				<polygon
   fill="none"
   stroke="#fdfdff"
   stroke-miterlimit="10"
   points="477.604,482.772 424.03,482.772 424.03,415.748 477.604,418.509 "
   id="polygon85" />
				<line
   fill="none"
   stroke="#fdfdff"
   stroke-miterlimit="10"
   x1="489.62399"
   y1="404.715"
   x2="477.604"
   y2="418.509"
   id="line87" />
				<line
   fill="none"
   stroke="#fdfdff"
   stroke-miterlimit="10"
   x1="424.03"
   y1="482.772"
   x2="412.01099"
   y2="497.81201"
   id="line89" />
				<line
   fill="none"
   stroke="#fdfdff"
   stroke-miterlimit="10"
   x1="477.604"
   y1="482.772"
   x2="489.62399"
   y2="497.81201"
   id="line91" />
				<line
   fill="none"
   stroke="#fdfdff"
   stroke-miterlimit="10"
   x1="424.03"
   y1="415.74799"
   x2="412.01099"
   y2="400.715"
   id="line93" />
			</g>
			<g
   id="g109">
				<polygon
   fill="none"
   stroke="#fdfdff"
   stroke-miterlimit="10"
   points="296.859,643.87 374.473,643.87 374.473,546.772 296.859,550.772 "
   id="polygon97" />
				<polygon
   fill="none"
   stroke="#fdfdff"
   stroke-miterlimit="10"
   points="308.879,628.83 362.453,628.83 362.453,561.806 308.879,564.566 "
   id="polygon99" />
				<line
   fill="none"
   stroke="#fdfdff"
   stroke-miterlimit="10"
   x1="296.85901"
   y1="550.77197"
   x2="308.879"
   y2="564.56598"
   id="line101" />
				<line
   fill="none"
   stroke="#fdfdff"
   stroke-miterlimit="10"
   x1="362.453"
   y1="628.83002"
   x2="374.47299"
   y2="643.87"
   id="line103" />
				<line
   fill="none"
   stroke="#fdfdff"
   stroke-miterlimit="10"
   x1="308.879"
   y1="628.83002"
   x2="296.85901"
   y2="643.87"
   id="line105" />
				<line
   fill="none"
   stroke="#fdfdff"
   stroke-miterlimit="10"
   x1="362.453"
   y1="561.80603"
   x2="374.47299"
   y2="546.77197"
   id="line107" />
			</g>
			<g
   id="g123">
				<polygon
   fill="none"
   stroke="#fdfdff"
   stroke-miterlimit="10"
   points="489.624,643.87 412.011,643.87 412.011,546.772 489.624,550.772 "
   id="polygon111" />
				<polygon
   fill="none"
   stroke="#fdfdff"
   stroke-miterlimit="10"
   points="477.604,628.83 424.03,628.83 424.03,561.806 477.604,564.566 "
   id="polygon113" />
				<line
   fill="none"
   stroke="#fdfdff"
   stroke-miterlimit="10"
   x1="489.62399"
   y1="550.77197"
   x2="477.604"
   y2="564.56598"
   id="line115" />
				<line
   fill="none"
   stroke="#fdfdff"
   stroke-miterlimit="10"
   x1="424.03"
   y1="628.83002"
   x2="412.01099"
   y2="643.87"
   id="line117" />
				<line
   fill="none"
   stroke="#fdfdff"
   stroke-miterlimit="10"
   x1="477.604"
   y1="628.83002"
   x2="489.62399"
   y2="643.87"
   id="line119" />
				<line
   fill="none"
   stroke="#fdfdff"
   stroke-miterlimit="10"
   x1="424.03"
   y1="561.80603"
   x2="412.01099"
   y2="546.77197"
   id="line121" />
			</g>
			<g
   id="g129">
				<circle
   fill="#fde1dd"
   cx="400.68799"
   cy="174.396"
   r="47.479"
   id="circle125" />
				<polyline
   fill="none"
   stroke="#212639"
   stroke-linecap="round"
   stroke-linejoin="round"
   stroke-miterlimit="10"
   points="      400.688,159.858 400.688,178.396 421.399,153.858     "
   id="polyline127" />
			</g>
			<g
   id="g165">
				<path
   fill="none"
   stroke="#212639"
   stroke-linecap="round"
   stroke-linejoin="round"
   stroke-miterlimit="10"
   d="m 901.525,343.388 v 12.75 c 0,0 17.333,3.938 20,18.969 v 16.614 l 7.333,-2.916 v -48 z"
   id="path131" />
				<path
   fill="none"
   stroke="#212639"
   stroke-linecap="round"
   stroke-linejoin="round"
   stroke-miterlimit="10"
   d="m 1056.881,343.388 v 12.75 c 0,0 17.333,3.938 20,18.969 v 16.614 l 7.333,-2.916 v -48 z"
   id="path133" />
				<polygon
   fill="#cbe6ed"
   points="863.243,346.594 858.243,327.05 1130.444,323.05 1130.444,346.594 "
   id="polygon135" />
				<path
   fill="#ffffff"
   d="m 1070.547,278.138 h 53.289 c 0,0 4.357,44.912 -26.645,44.912 -31.002,0 -26.644,-44.912 -26.644,-44.912 z"
   id="path137" />
				<polygon
   fill="#3b61b2"
   points="1026.856,234.804 1043.523,234.804 1043.523,323.05 1021.523,323.05 "
   id="polygon139" />
				<polygon
   fill="none"
   stroke="#fdfdff"
   stroke-miterlimit="10"
   points="1001.842,273.455 992.016,266.804 966.189,323.05 982.189,323.05 "
   id="polygon141" />
				<polygon
   fill="none"
   stroke="#212639"
   stroke-linecap="round"
   stroke-linejoin="round"
   stroke-miterlimit="10"
   points="1002.856,251.765 1025.831,251.765 1025.831,323.05 999.523,323.05 "
   id="polygon143" />
				
					<line
   fill="none"
   stroke="#212639"
   stroke-linecap="round"
   stroke-linejoin="round"
   stroke-miterlimit="10"
   x1="1008.189"
   y1="251.765"
   x2="1008.189"
   y2="323.04999"
   id="line145" />
				
					<line
   fill="none"
   stroke="#212639"
   stroke-linecap="round"
   stroke-linejoin="round"
   stroke-miterlimit="10"
   x1="1012.678"
   y1="251.765"
   x2="1012.678"
   y2="323.04999"
   id="line147" />
				
					<line
   fill="none"
   stroke="#212639"
   stroke-linecap="round"
   stroke-linejoin="round"
   stroke-miterlimit="10"
   x1="1018.189"
   y1="251.765"
   x2="1018.189"
   y2="323.04999"
   id="line149" />
				<path
   fill="#f65448"
   d="m 1105.833,278.138 c 0,0 1.69,-52 35.023,-67.333 0,-0.001 -8.046,49.333 -35.023,67.333 z"
   id="path151" />
				<path
   fill="#f65448"
   d="m 1087.151,278.927 c 0,0 3.705,-26.123 -20.295,-44.123 0,0 -5.41,30.245 20.295,44.123 z"
   id="path153" />
				<path
   fill="#f65448"
   d="m 1102.189,278.138 c 0,0 23.337,-80.793 -4.998,-110.73 0,0 -23.256,59.396 4.998,110.73 z"
   id="path155" />
				
					<line
   fill="none"
   stroke="#212639"
   stroke-linecap="round"
   stroke-linejoin="round"
   stroke-miterlimit="10"
   x1="1070.337"
   y1="283.64499"
   x2="1124.046"
   y2="287.40701"
   id="line157" />
				
					<line
   fill="none"
   stroke="#212639"
   stroke-linecap="round"
   stroke-linejoin="round"
   stroke-miterlimit="10"
   x1="1097.191"
   y1="167.408"
   x2="1102.189"
   y2="278.138"
   id="line159" />
				
					<line
   fill="none"
   stroke="#212639"
   stroke-linecap="round"
   stroke-linejoin="round"
   stroke-miterlimit="10"
   x1="1066.856"
   y1="234.804"
   x2="1087.151"
   y2="278.927"
   id="line161" />
				
					<line
   fill="none"
   stroke="#212639"
   stroke-linecap="round"
   stroke-linejoin="round"
   stroke-miterlimit="10"
   x1="1140.856"
   y1="210.804"
   x2="1105.833"
   y2="278.138"
   id="line163" />
			</g>
			<g
   id="g171">
				<polygon
   fill="none"
   stroke="#212639"
   stroke-linecap="round"
   stroke-linejoin="round"
   stroke-miterlimit="10"
   points="1043.523,595.321 1248.664,599.138 1248.664,537.138 1043.523,539.138 "
   id="polygon167" />
				<polygon
   fill="none"
   stroke="#212639"
   stroke-linecap="round"
   stroke-linejoin="round"
   stroke-miterlimit="10"
   points="1122.754,568.138 1163.459,572.138 1163.459,559.138 1122.754,559.138 "
   id="polygon169" />
			</g>
			<g
   id="g177">
				<polygon
   fill="none"
   stroke="#212639"
   stroke-linecap="round"
   stroke-linejoin="round"
   stroke-miterlimit="10"
   points="1033.152,673.863 1254.859,670.899 1254.859,615.68 1033.152,617.68 "
   id="polygon173" />
				<polygon
   fill="none"
   stroke="#212639"
   stroke-linecap="round"
   stroke-linejoin="round"
   stroke-miterlimit="10"
   points="1112.383,646.68 1153.088,650.68 1153.088,637.68 1112.383,637.68 "
   id="polygon175" />
			</g>
			<polyline
   fill="none"
   stroke="#212639"
   stroke-linecap="round"
   stroke-linejoin="round"
   stroke-miterlimit="10"
   points="     1039.67,757.572 1039.67,692.105 1223.859,692.105 1227.859,762.03    "
   id="polyline179" />
			<polygon
   fill="#212639"
   points="1049.911,673.621 1033.152,617.68 1033.152,673.863 "
   id="polygon181" />
			<polygon
   fill="#3b61b2"
   points="1132.735,502.138 1174.859,502.138 1189.859,449.264 1143.959,449.264 "
   id="polygon183" />
			<circle
   fill="#ffffff"
   cx="1156.359"
   cy="463.30499"
   r="8.1669998"
   id="circle185" />
			<polygon
   fill="none"
   stroke="#212639"
   stroke-linecap="round"
   stroke-linejoin="round"
   stroke-miterlimit="10"
   points="1150.192,492.329 1170.526,492.329 1156.359,465.471 "
   id="polygon187" />
			<g
   id="g199">
				<circle
   fill="#ffffff"
   cx="844.43201"
   cy="261.70401"
   r="20.573"
   id="circle189" />
				<path
   fill="#c9a0be"
   d="m 780.11,262.753 h 131.41 c 0,0 -17.129,-39.009 -60.895,-43.004 -43.766,-3.995 -70.515,43.004 -70.515,43.004 z"
   id="path191" />
				<line
   fill="none"
   stroke="#fdfdff"
   stroke-miterlimit="10"
   x1="785.03497"
   y1="255.388"
   x2="907.39899"
   y2="255.388"
   id="line193" />
				
					<line
   fill="none"
   stroke="#212639"
   stroke-linecap="round"
   stroke-linejoin="round"
   stroke-miterlimit="10"
   x1="844.40997"
   y1="143.46201"
   x2="840.00299"
   y2="219.74899"
   id="line195" />
				
					<line
   fill="none"
   stroke="#212639"
   stroke-linecap="round"
   stroke-linejoin="round"
   stroke-miterlimit="10"
   x1="856.83899"
   y1="143.46201"
   x2="852.43201"
   y2="219.74899"
   id="line197" />
			</g>
		</g>
		<g
   id="g367">
			<path
   fill="#2e5599"
   d="m 1085.949,415.478 v 58.67 c 0,0 -69.8,22.38 -121.79,38.521 -24.689,7.68 -45.359,13.949 -52.64,15.75 -22.59,5.609 -157.86,184.34 -157.86,184.34 L 737.09,687.779 763.579,599.75 794.93,495.59 c 0,0 5.43,-34.77 29.83,-41.1 24.399,-6.323 261.189,-39.012 261.189,-39.012 z"
   id="path203" />
			<path
   fill="#212639"
   d="m 964.159,512.668 c -24.689,7.68 -45.359,13.949 -52.64,15.75 -22.59,5.609 -157.86,184.34 -157.86,184.34 l -16.569,-24.98 26.489,-88.029 111.95,-62.61 14.75,-47.53 z"
   id="path205" />
			<path
   fill="#e79c89"
   d="m 1143.939,784.668 c -0.93,7.45 -42.82,4.649 -52.13,5.58 -9.311,0.93 -28.86,2.8 -32.59,0 -1.87,-1.4 -6.801,-9.15 -11.24,-16.521 -4.39,-7.29 -8.311,-14.2 -8.311,-14.2 l 22.28,-21.56 6.58,-6.37 c 0,0 3.35,5.38 8.65,12.53 1.21,1.63 2.52,3.35 3.92,5.13 3.189,4.05 6.83,8.36 10.72,12.399 13.032,13.572 53.051,15.562 52.121,23.012 z"
   id="path207" />
			<path
   fill="#212639"
   d="m 1084.209,746.968 -3.109,2.29 -33.12,24.47 c -4.39,-7.29 -8.311,-14.2 -8.311,-14.2 l 22.28,-21.56 15.23,6.16 z"
   id="path209" />
			<path
   fill="#e79c89"
   d="m 1145.329,427.417 c -3.09,8.54 -9.66,26.44 -13.67,28.53 -1.66,0.87 -8.01,1.75 -14.85,2.48 -9.62,1.02 -20.24,1.75 -20.24,1.75 l -12.36,-36.98 c 0,0 10.23,-1.12 22.57,-4.02 4.36,-1.02 8.99,-2.27 13.521,-3.76 17.35,-5.72 35.869,-39.93 42,-35.99 6.13,3.941 -13.891,39.451 -16.971,47.99 z"
   id="path211" />
			<path
   fill="#212639"
   d="m 1116.81,458.428 c -9.62,1.02 -20.24,1.75 -20.24,1.75 l -12.36,-36.98 c 0,0 10.23,-1.12 22.57,-4.02 z"
   id="path213" />
			<path
   fill="#3b61b2"
   d="m 770.298,807.273 c 0,0 89.688,1.947 101.79,-45.243 12.104,-47.19 27.996,-146.215 27.996,-146.215 l 125.62,136.265 61.447,-27.837 c 0,0 -143.376,-219.812 -184.34,-231.914 -40.964,-12.103 -57.723,11.733 -67.964,30.538 -10.24,18.806 -90.618,163.803 -90.618,163.803 z"
   id="path215" />
			<g
   id="g257">
				<path
   fill="#cbe6ed"
   d="m 625.949,417.558 c 0,0 -9.03,58.79 -11.7,70.35 -2.659,11.549 -11.319,43.34 -37.92,39.1 -14.899,-2.37 -57.45,-2.74 -97.58,-13.62 -24.63,-6.67 -48.35,-17.3 -64.189,-34.78 -4.46,-4.91 -8.29,-10.36 -11.34,-16.41 -4.45,-8.81 -0.78,-21.91 8.93,-28.44 5.62,-3.77 13.27,-5.35 22.54,-2.61 3.28,0.97 7.21,2.3 11.61,3.86 29.46,10.47 79.949,31.37 97.909,23.83 20.641,-8.67 30.631,-43.69 48.32,-52.32 z"
   id="path217" />
				<path
   fill="#212639"
   d="m 412.149,433.758 2.41,44.85 c 19.032,27.804 64.189,34.78 64.189,34.78 l -32.449,-78.38 c -30.561,-15.13 -34.15,-1.25 -34.15,-1.25 z"
   id="path219" />
				<path
   fill="#fde1dd"
   d="m 618.258,429.448 7.512,-28.168 c 0,0 7.441,-7.658 8.668,-14.818 1.226,-7.16 -3.87,-28.314 -3.87,-28.314 0,0 -6.634,-3.529 -8.632,-4.113 -1.997,-0.584 -5.389,5.076 -7.002,13.57 -1.613,8.492 -1.613,8.492 -1.613,8.492 0,0 -1.469,-6.356 -1.576,-10.437 0,0 -3.085,5.605 -3.337,9.435 -0.253,3.83 2.378,16.6 2.378,16.6 l -16.727,29.524 z"
   id="path221" />
				<path
   fill="#f65448"
   d="m 221.903,720.558 c 0,0 -9.112,-9.488 -22.146,-0.18 -13.033,9.311 -37.717,34.806 -37.717,37.909 0,3.103 8.068,4.345 19.241,0 11.172,-4.345 27.104,-16.197 44.067,-13.335 16.962,2.863 11.172,-24.395 11.172,-24.395 h -14.617 z"
   id="path223" />
				<polygon
   fill="#212639"
   points="217.28,758.236 283.07,762.03 228.452,727.873 "
   id="polygon225" />
				<path
   fill="#2e5599"
   d="m 267.242,622.18 c 0,0 -21.967,51.57 14.912,93.784 36.877,42.214 187.176,45.655 187.176,45.655 0,0 78.601,7.299 71.146,-39.594 -7.456,-46.892 -171.675,-97.12 -171.675,-97.12 z"
   id="path227" />
				<path
   fill="#f65448"
   d="m 431.3,408.928 c -29.21,18.09 -58,59.01 -68.91,84.74 -7.07,16.689 -34.641,58.54 -77.04,65.489 -16.57,2.721 -35.391,0.11 -56.15,-11.43 -7.51,-4.16 -15.28,-9.5 -23.28,-16.18 -0.579,-0.48 -1.17,-0.97 -1.76,-1.479 -2.71,-2.311 -5.229,-4.631 -7.58,-6.94 -73.739,-72.44 24.851,-140.86 78.431,-144.42 55.29,-3.67 78.56,-40.02 89.01,-50.63 10.45,-10.6 61.07,-41.67 87.34,-1.73 0,0 15.09,4.48 15.47,20.3 0.368,15.82 -6.311,44.2 -35.531,62.28 z"
   id="path229" />
				<path
   fill="#212639"
   d="m 238.189,537.468 -8.99,10.26 c -7.51,-4.16 -15.28,-9.5 -23.28,-16.18 -0.579,-0.48 -1.17,-0.97 -1.76,-1.479 -2.71,-2.311 -5.229,-4.631 -7.58,-6.94 17.53,-16.99 82.45,-79.14 100.28,-85.56 20.67,-7.431 -58.67,99.899 -58.67,99.899 z"
   id="path231" />
				<path
   fill="#fde1dd"
   d="m 443.459,356.57 c 0,0 -5.96,39.222 -9.885,43.462 -3.924,4.24 -17.078,2.935 -19.16,14.563 l -2.582,13.163 -26.097,-8.483 7.39,-35.786 c 0,0 -7.04,-3.139 -0.459,-10.334 0,0 4.718,-44.379 33.025,-37.637 24.417,5.817 17.768,21.052 17.768,21.052 z"
   id="path233" />
				<path
   fill="#f65448"
   d="m 445.365,336.398 c 0,0 6.556,25.468 -14.717,29.586 -21.274,4.117 -27.36,0.017 -30.147,7.172 l -8.662,-0.27 c 0,0 -2.697,-27.543 18.414,-42.566 21.109,-15.022 35.112,6.078 35.112,6.078 z"
   id="path235" />
				<path
   fill="none"
   stroke="#fdfdff"
   stroke-miterlimit="10"
   d="m 450.359,328.982 c 0,0 3.148,8.881 -7.064,20.264"
   id="path237" />
				<polyline
   fill="none"
   stroke="#212639"
   stroke-miterlimit="10"
   points="431.156,379.029 432.013,385.946 429.205,385.034           "
   id="polyline239" />
				<path
   fill="#c9a0be"
   d="m 453.6,497.447 c -5.12,16.76 -31.19,48.41 -42.36,67.971 -11.17,19.55 -55.86,92.17 -55.86,92.17 0,0 -16.67,-2.561 -38.229,-6.05 -35.86,-5.811 -85.25,-14.21 -93.97,-17.7 -4.44,-1.771 3.199,-23.97 15.699,-53.42 26.79,-63.19 75.91,-159.78 75.91,-159.78 0,0 24.49,-24.2 70.95,-7.91 46.45,16.29 52.03,23.74 52.03,23.74 0,0 20.95,44.22 15.83,60.979 z"
   id="path241" />
				<path
   fill="none"
   stroke="#212639"
   stroke-miterlimit="10"
   d="m 427.909,393.795 c 0,0 -5.972,1.312 -6.813,-4.285"
   id="path243" />
				<path
   fill="#fde1dd"
   d="m 373.534,409.225 c 0,0 52.424,14.892 54.375,20.809 1.951,5.917 -6.813,36.222 -8.887,38.399 -10.201,10.715 -45.488,-59.208 -45.488,-59.208 z"
   id="path245" />
				<path
   fill="#cbe6ed"
   d="m 387.164,412.354 c 0,0 30.641,40.252 31.858,59.493 0,0 -25.161,-4.034 -29.506,-12.414 -4.344,-8.379 -3.781,-14.275 -3.781,-14.275 0,0 -23.218,-3.414 -23.528,-18.931 -0.31,-15.517 0,-19.136 0,-19.136 0,0 16.089,-4.577 24.957,5.263 z"
   id="path247" />
				<path
   fill="#cbe6ed"
   d="m 417.256,423.723 c 0,0 -2.243,34.159 1.767,48.124 0,0 12.66,-12.723 12.99,-18.62 0.331,-5.897 -2.131,-8.689 -2.131,-8.689 0,0 6.048,-7.186 4.807,-13.392 -1.244,-6.208 -10.798,-9.927 -17.433,-7.423 z"
   id="path249" />
				<path
   fill="#212639"
   d="m 335.666,654.503 c -35.86,-5.811 -103.767,-17.175 -112.486,-20.665 -4.44,-1.771 3.199,-23.97 15.699,-53.42 z"
   id="path251" />
				<polyline
   fill="none"
   stroke="#212639"
   stroke-miterlimit="10"
   points="419.022,471.847 429.205,494.269 421.402,497.812       413.674,471.847     "
   id="polyline253" />
				<path
   fill="none"
   stroke="#212639"
   stroke-miterlimit="10"
   d="m 387.164,412.354 c 0,0 24.241,34.954 30.539,52.705"
   id="path255" />
			</g>
			<g
   id="g265">
				<path
   fill="#212639"
   d="m 513.377,411.344 c 0,0 10.954,10.65 16.395,10.844 5.438,0.193 10.096,7.101 10.096,7.101 0,0 19.895,82.665 19.442,92.565 -0.45,9.897 -25.275,84.075 -32.728,102.493 -7.451,18.418 66.959,29.425 66.959,29.425 0,0 29.323,-70.034 30.547,-96.269 1.223,-26.233 -51.868,-136.72 -55.838,-147.772 -3.97,-11.051 -7.609,-24.174 -11.171,-29.125 -3.561,-4.949 -11.863,-9.015 -11.863,-9.015 l -5.359,0.555 -6.824,0.708 c 0,0 -8.333,-9.116 -12.713,-8.598 -4.38,0.517 -4.38,0.517 -4.38,0.517 0,0 10.949,10.58 13.357,14.817 2.409,4.238 6.253,17.552 3.888,23.256 -2.363,5.703 -5.521,8.493 -8.498,8.31 -2.975,-0.183 -11.31,0.188 -11.31,0.188 z"
   id="path259" />
				<path
   fill="#212639"
   d="m 464.401,724.706 c 1.702,33.554 68.476,34.542 95.783,3.008 27.308,-31.533 28.767,-50.588 33.485,-65.253 4.722,-14.664 5.64,-26.87 5.64,-26.87 l -70.2,-30.249 c 0,0 -66.501,83.983 -64.708,119.364 z"
   id="path261" />
				<polygon
   fill="#212639"
   points="607.076,626.249 599.769,640.012 529.109,605.342 532.738,595.321 "
   id="polygon263" />
			</g>
			<g
   id="g277">
				<path
   fill="#e79c89"
   d="m 404.898,692.162 c 0,0 0.424,-3.29 12.259,2.729 11.848,6.018 16.051,19.425 16.051,19.425 0,0 39.667,11.889 52.28,-6.85 3.797,-5.634 3.307,-10.021 0.765,-13.398 l -0.005,-0.007 c -5.914,-7.848 -22.887,-10.253 -22.887,-10.253 0,0 -18.006,-10.152 -23.656,-16.282 -0.885,-0.959 -1.584,-2.072 -2.169,-3.294 -3.168,-6.554 -2.928,-16.086 -9.267,-20.043 -7.506,-4.688 -35.289,-23.942 -35.289,-23.942 0,0 -8.334,-16.38 -29.691,13.837 -21.145,29.9 23.59,49.553 24.526,49.961 l 17.083,8.117"
   id="path267" />
				<path
   fill="#d68778"
   d="m 486.248,694.062 c -29.938,2.654 -73.225,-14.574 -59.688,-18.771 6.558,-2.029 9.66,-6.394 10.977,-11.059 0.585,1.222 1.284,2.335 2.169,3.294 5.65,6.13 23.656,16.282 23.656,16.282 0,0 16.972,2.406 22.886,10.254 z"
   id="path269" />
				<path
   fill="#212639"
   d="m 390.961,690.728 c 0,0 -26.24,-2.409 -38.932,-20.42 -15.77,-22.381 -5.072,-32.863 5.489,-45.027 10.564,-12.162 24.446,-28.148 24.446,-28.148 12.218,2.076 18.327,19.61 -0.617,40.021 0,0 9.313,4.718 5.181,10.881 -4.134,6.165 -1.034,13.125 1.399,15.237 2.433,2.112 11.815,10.259 11.815,10.259 l -5.762,1.022 c 0,0 -6.827,-1.358 -7.306,2.796 -0.479,4.157 11.543,9.114 16.466,3.785 l 1.757,11.028 z"
   id="path271" />
				<path
   fill="none"
   stroke="#212639"
   stroke-miterlimit="10"
   d="m 417.847,658.824 c 0,0 14.03,-1.994 6.85,-11.371"
   id="path273" />
				<polyline
   fill="none"
   stroke="#212639"
   stroke-miterlimit="10"
   points="418.066,641.201 421.402,637.359 413.674,635.03     "
   id="polyline275" />
			</g>
			<path
   fill="#212639"
   d="m 426.741,720.558 c 0,0 26.362,-26.815 36.62,-36.749 0,0 10.877,-25.562 44.393,-39.161 33.517,-13.6 107.997,16.814 135.928,27.986 27.93,11.172 75.722,13.656 82.549,14.276 6.828,0.619 6.828,0.619 6.828,0.619 l 21.102,119.744 H 440.125 c 0,0 -55.098,-41.325 -13.384,-86.715 z"
   id="path279" />
			<g
   id="g287">
				<path
   fill="#3b61b2"
   d="m 223.177,633.842 c 0,0 -29.792,47.481 0,94.963 29.792,47.482 177.686,74.48 177.686,74.48 0,0 76.479,19.552 76.479,-27.931 0,-47.481 -154.295,-122.872 -154.295,-122.872 z"
   id="path281" />
				<path
   fill="#fde1dd"
   d="m 292.692,635.394 26.378,12.414 c 0,0 6.207,8.688 13.033,11.172 6.827,2.483 28.553,1.241 28.553,1.241 0,0 4.654,-5.896 5.585,-7.759 0.932,-1.861 -4.034,-6.206 -12.103,-9.31 -8.069,-3.104 -8.069,-3.104 -8.069,-3.104 0,0 6.516,-0.311 10.551,0.311 0,0 -4.964,-4.034 -8.688,-4.966 -3.725,-0.931 -16.758,-0.62 -16.758,-0.62 l -26.069,-21.724 z"
   id="path283" />
				<path
   fill="#cbe6ed"
   d="m 322.221,415.332 c 13.91,-7.036 22.918,29.05 7.556,50.463 -15.361,21.413 -52.136,61.447 -50.739,83.792 1.396,22.344 31.188,43.291 33.516,62.843 l -21.412,27.93 c 0,0 -52.556,-27.865 -62.588,-34.182 -10.031,-6.317 -37.212,-24.948 -24.462,-48.679 12.749,-23.729 79.848,-122.804 118.129,-142.167 z"
   id="path285" />
			</g>
			<path
   fill="#c9a0be"
   d="m 455.758,679.285 30.49,-6.807 c 0,0 -28.467,45.651 -46.617,51.765 l -9.335,-7.295 z"
   id="path289" />
			<polygon
   fill="#c9a0be"
   points="741.747,807.273 770.298,807.273 744.229,686.67 723.145,686.67 "
   id="polygon291" />
			<polygon
   fill="#6286c4"
   points="1026.636,769.77 1101.115,740.908 1079.569,712.754 1017.326,751.149 "
   id="polygon293" />
			<polygon
   fill="#6286c4"
   points="1076.912,477.04 1105.833,477.04 1103.122,403.88 1076.912,408.398 "
   id="polygon295" />
			<g
   id="g339">
				<path
   fill="#212639"
   d="m 637.475,443.606 c 0,0 6.713,10.647 0,25.944 -2.805,6.391 -0.229,23.342 6.713,19.491 6.942,-3.85 6.339,-18.125 10.365,-27.436 4.025,-9.31 -13.914,-24.034 -13.914,-24.034 z"
   id="path297" />
				<path
   fill="#212639"
   d="m 664.737,375.106 c 0,0 25.494,7.123 40.392,19.501 14.896,12.379 55.239,18.127 68.894,8.425 13.655,-9.702 5.586,45.791 -36.931,36.354 -42.516,-9.437 -49.437,-50.275 -72.354,-53.441 -22.918,-3.165 -0.001,-10.839 -0.001,-10.839 z"
   id="path299" />
				<g
   id="g317">
					<path
   fill="#ffffff"
   d="m 498.156,369.492 13.307,-2.453 c 0.976,-6.369 6.297,-12.563 21.523,-45.056 15.226,-32.492 -17.039,-31.365 -17.039,-31.365 -1.978,1.26 -3.773,2.67 -5.407,4.212 -17.442,16.457 -16.226,47.746 -14.15,64.105 0.815,6.435 1.766,10.557 1.766,10.557 z"
   id="path301" />
					<path
   fill="#ffffff"
   d="m 529.848,412.515 c 0,0 -17.884,10.5 -21.28,16.944 -3.397,6.445 -4.677,7.947 -1.321,12.044 3.354,4.097 8.424,8.616 11.031,7.621 2.607,-0.996 3.643,-3.657 0.315,-9.378 0,0 2.469,1.465 1.906,-1.646 -0.563,-3.11 -0.563,-3.11 -0.563,-3.11 0,0 24.604,-12.872 35.596,-16.159 10.993,-3.285 -25.684,-6.316 -25.684,-6.316 z"
   id="path303" />
					<path
   fill="#ffffff"
   d="m 612.971,445.006 c -8.984,-1.62 -44.065,-15.25 -65.45,-23.191 -1.08,-0.41 -2.123,-0.791 -3.128,-1.164 -2.523,-0.922 -4.785,-1.75 -6.722,-2.43 -1.312,-0.465 -2.477,-0.856 -3.454,-1.182 -1.174,-0.382 -2.086,-0.652 -2.71,-0.8 -0.567,-0.14 -1.145,-0.187 -1.74,-0.159 -5.884,0.27 -12.886,8.109 -21.553,14.04 -3.287,2.253 -6.815,4.217 -10.614,5.4 -9.459,2.933 -20.342,-0.978 -27.594,-6.536 0,0 -0.01,0 -0.029,-0.009 -4.095,-3.147 -7.019,-6.806 -7.875,-10.045 -0.057,-0.214 -0.085,-0.438 -0.094,-0.68 -0.232,-4.739 7.569,-16.06 16.023,-26.851 8.229,-10.511 17.083,-20.519 19.783,-23.545 0.529,-0.595 0.828,-0.921 0.828,-0.921 0,0 2.477,0.615 5.875,1.387 4.767,1.09 11.34,2.495 15.51,2.998 1.993,0.242 9.786,0.009 20.027,-0.456 3.509,-0.158 7.308,-0.344 11.246,-0.54 0.064,-0.01 0.131,-0.01 0.186,-0.01 16.582,-0.856 35.751,-2.001 47.37,-2.718 5.065,-0.307 8.695,-0.54 10.046,-0.624 0.381,-0.028 0.586,-0.038 0.586,-0.038 l 1.378,30.807 z"
   id="path305" />
					<path
   fill="#f65448"
   d="m 542.458,373.311 c 0,0 -3.721,28.408 -12.692,42.773 l 0.086,1.907 7.341,0.973 c 0,0 15.714,-23.548 14.298,-48.713 z"
   id="path307" />
					<path
   fill="#212639"
   d="m 518.513,399.431 c 13.005,-7.886 15.727,-19.327 21.539,-28.569 -10.234,0.461 -18.032,0.695 -20.024,0.452 -7.149,-0.867 -21.387,-4.381 -21.387,-4.381 0,0 -10.749,11.88 -20.607,24.462 7.291,5.91 24.816,17.534 40.479,8.036 z"
   id="path309" />
					<path
   fill="#212639"
   d="m 461.999,418.255 c 0,0 5.958,-7.433 8.677,0.372 2.718,7.803 -0.671,10.358 -0.671,10.358 0,0 -12.533,-4.395 -8.006,-10.73 z"
   id="path311" />
					<circle
   fill="#3b61b2"
   cx="538.31201"
   cy="421.63599"
   r="6.1599998"
   id="circle313" />
					<path
   fill="none"
   stroke="#212639"
   stroke-linecap="round"
   stroke-linejoin="round"
   stroke-miterlimit="10"
   d="m 539.178,419.848 -2.006,4.83 c 0,0 0.654,-4.178 6.653,-0.295"
   id="path315" />
				</g>
				<g
   id="g323">
					<path
   fill="#212639"
   d="m 576.27,317.815 c 7.515,10.954 -7.296,32.03 -26.454,43.397 -19.155,11.368 -46.511,22.004 -53.08,15.182 0,0 3.986,-39.845 53.226,-65.192 -10e-4,0 14.938,-9.959 26.308,6.613 z"
   id="path319" />
					<path
   fill="none"
   stroke="#fdfdff"
   stroke-miterlimit="10"
   d="m 515.873,374.229 c 0,0 14.169,-2.652 20.396,-5.787"
   id="path321" />
				</g>
				<g
   id="g331">
					<path
   fill="#ff6142"
   d="m 481.626,431.359 c 0,0 -17.173,10.724 -12.616,23.834 4.557,13.109 11.222,-14.614 18.815,-23.342 z"
   id="path325" />
					<path
   fill="none"
   stroke="#212639"
   stroke-linecap="round"
   stroke-linejoin="round"
   stroke-miterlimit="10"
   d="m 470.936,427.758 c 0,0 18.814,8.324 25.8,1.689"
   id="path327" />
					<path
   fill="none"
   stroke="#212639"
   stroke-linecap="round"
   stroke-linejoin="round"
   stroke-miterlimit="10"
   d="m 475.48,443.606 c 0,0 2.745,-8.625 8.355,-12.071"
   id="path329" />
				</g>
				<path
   fill="#ffffff"
   d="m 671.615,489.042 c -3.725,-8.816 -8.695,-28.368 -13.658,-30.388 -4.962,-2.011 -44.986,-13.648 -44.986,-13.648 0,0 -10.334,-47.686 -8.51,-68.522 0.484,-5.52 1.825,-9.161 4.441,-9.514 0.381,-0.028 0.586,-0.038 0.586,-0.038 0,0 17.225,0.195 33.768,2.691 11.2,1.694 22.093,4.45 27.111,8.918 12.419,11.07 14.896,38.414 4.972,49.26 -9.935,10.837 -15.52,13.025 -11.796,17.205 3.725,4.189 14.896,13.648 14.896,13.648 0,0 4.348,25.547 5.587,30.388 1.238,4.842 -8.687,8.817 -12.411,0 z"
   id="path333" />
				<path
   fill="none"
   stroke="#212639"
   stroke-linecap="round"
   stroke-linejoin="round"
   stroke-miterlimit="10"
   d="m 637.475,403.033 c 0,0 -25.566,30.785 -9.99,46.231"
   id="path335" />
				<path
   fill="#212639"
   d="m 638.09,392.711 c -4.926,1.238 -9.842,-0.261 -14.859,1.377 -4.516,1.472 -8.045,5.661 -12.364,3.65 -0.018,-0.009 -0.046,-0.019 -0.065,-0.028 -5.949,-2.858 -5.316,-11.796 -5.604,-16.982 -0.083,-1.573 -0.345,-2.97 -0.735,-4.246 -1.089,-3.621 -3.249,-6.228 -5.604,-8.891 5.065,-0.307 8.695,-0.54 10.046,-0.624 0.381,-0.028 0.586,-0.038 0.586,-0.038 0,0 17.225,0.195 33.768,2.691 5.117,8.67 5.677,20.355 -5.169,23.091 z"
   id="path337" />
			</g>
			<g
   id="g349">
				<path
   fill="#e79c89"
   d="m 545.321,421.229 c 0,0 9.8,11.722 15.188,12.476 5.391,0.754 9.311,8.104 9.311,8.104 0,0 11.269,84.275 9.799,94.075 -1.47,9.8 -33.808,81.024 -43.118,98.574 -9.31,17.551 63.568,36.171 63.568,36.171 0,0 36.387,-66.637 40.308,-92.605 3.92,-25.971 -37.498,-141.339 -40.308,-152.742 -2.812,-11.402 -5.078,-24.829 -8.109,-30.12 -3.031,-5.291 -10.871,-10.19 -10.871,-10.19 h -5.389 -6.861 c 0,0 -7.349,-9.926 -11.759,-9.863 -4.41,0.063 -4.41,0.063 -4.41,0.063 0,0 9.8,11.652 11.76,16.116 1.96,4.463 4.409,18.103 1.471,23.532 -2.939,5.43 -6.369,7.879 -9.311,7.39 -2.94,-0.491 -11.269,-0.981 -11.269,-0.981 z"
   id="path341" />
				<path
   fill="#212639"
   d="m 464.308,727.873 c -1.766,33.549 64.55,41.417 94.962,12.866 30.413,-28.552 33.826,-47.354 40.034,-61.454 6.207,-14.101 8.379,-26.146 8.379,-26.146 l -66.709,-37.323 c 0,-10e-4 -74.804,76.681 -76.666,112.057 z"
   id="path343" />
				<polygon
   fill="#c9a0be"
   points="616.371,644.647 607.683,657.583 540.974,615.815 545.614,606.222 "
   id="polygon345" />
				<path
   fill="none"
   stroke="#fdfdff"
   stroke-miterlimit="10"
   d="m 605.438,660.531 c 0,0 -13.952,49.817 -26.766,63.712"
   id="path347" />
			</g>
			
				<line
   fill="none"
   stroke="#212639"
   stroke-linecap="round"
   stroke-linejoin="round"
   stroke-miterlimit="10"
   x1="599.31"
   y1="522.867"
   x2="616.37097"
   y2="527.39801"
   id="line351" />
			
				<line
   fill="none"
   stroke="#212639"
   stroke-linecap="round"
   stroke-linejoin="round"
   stroke-miterlimit="10"
   x1="596.90802"
   y1="512.68298"
   x2="613.96997"
   y2="517.21301"
   id="line353" />
			
				<line
   fill="none"
   stroke="#212639"
   stroke-linecap="round"
   stroke-linejoin="round"
   stroke-miterlimit="10"
   x1="590.77899"
   y1="500.68301"
   x2="607.841"
   y2="505.21301"
   id="line355" />
			
				<line
   fill="none"
   stroke="#212639"
   stroke-linecap="round"
   stroke-linejoin="round"
   stroke-miterlimit="10"
   x1="886.19202"
   y1="599.138"
   x2="900.08398"
   y2="615.815"
   id="line357" />
			<polygon
   fill="none"
   stroke="#212639"
   stroke-linecap="round"
   stroke-linejoin="round"
   stroke-miterlimit="10"
   points="727.73,734.803 727.73,724.243 757.859,724.243 760.859,734.803 "
   id="polygon359" />
			<polygon
   fill="none"
   stroke="#212639"
   stroke-linecap="round"
   stroke-linejoin="round"
   stroke-miterlimit="10"
   points="737.596,780.329 737.596,769.77 767.725,769.77 770.725,780.329 "
   id="polygon361" />
			<path
   fill="none"
   stroke="#212639"
   stroke-miterlimit="10"
   d="m 286.193,595.317 c 0,0 17.356,11.214 22.345,22.35"
   id="path363" />
			<path
   fill="none"
   stroke="#212639"
   stroke-miterlimit="10"
   d="m 278.786,610.965 c 0,0 11.646,14.56 21.193,17.865"
   id="path365" />
		</g>
		<g
   id="g381">
			<polygon
   fill="#f65448"
   points="784.574,869.387 802.264,869.387 827.4,790.252 809.711,791.727 "
   id="polygon369" />
			<polygon
   fill="#f65448"
   points="645.75,886.146 616.371,886.146 659.819,799.562 680.301,799.562 "
   id="polygon371" />
			<path
   fill="#cbe6ed"
   d="m 809.711,791.727 c 0,0 -47.481,-21.957 -129.41,7.835 l -34.551,86.584 c 0,0 100.652,11.172 138.824,-16.759 z"
   id="path373" />
			<ellipse
   fill="#ffffff"
   cx="727.72998"
   cy="835.07703"
   rx="29.431999"
   ry="27.792"
   id="ellipse375" />
			<path
   fill="#b684c6"
   d="m 770.772,821.774 c 3.341,-3.195 12.007,-4.33 12.935,1.852 0.929,6.181 -7.164,9.205 -7.089,10.106 0.074,0.902 7.838,4.015 4.969,9.675 -2.87,5.66 -10.042,-5.429 -20.157,-6.679 -10.115,-1.25 -67.085,5.957 -67.085,5.957 0,0 -6.438,12.972 -13.734,10.483 -7.298,-2.489 4.622,-8.896 0.413,-14.806 -4.21,-5.91 -1.437,-12.734 3.669,-11.527 5.105,1.208 5.101,7.883 16.529,6.521 11.429,-1.359 61.215,-4.638 61.215,-4.638 z"
   id="path377" />
			<polygon
   fill="#212639"
   points="630.041,886.146 645.75,886.146 680.301,799.562 "
   id="polygon379" />
		</g>
		<g
   id="g389">
			<polygon
   fill="#3b61b2"
   points="881.398,829.819 901.881,783.93 1033.152,783.93 1049.911,829.819 "
   id="polygon383" />
			<path
   fill="#212639"
   d="m 1033.152,783.93 c -47.48,29.987 -131.271,0 -131.271,0 z"
   id="path385" />
			<line
   fill="none"
   stroke="#fdfdff"
   stroke-miterlimit="10"
   x1="886.19202"
   y1="819.07898"
   x2="1041.531"
   y2="819.07898"
   id="line387" />
		</g>
		<g
   id="g427">
			<polygon
   fill="#fbebdc"
   points="529.767,886.146 237.474,888.353 250.176,783.93 312.553,736.253 534.673,726.227 578.673,724.243 588.159,835.043 "
   id="polygon391" />
			<polygon
   fill="#e5cebc"
   points="529.767,886.146 519.46,775.354 534.673,726.227 578.673,724.243 588.159,835.043 "
   id="polygon393" />
			<polygon
   fill="#d8bfaf"
   points="558.06,742.043 539.291,758.234 519.46,775.354 250.176,783.93 279.382,761.604 301.939,744.362 312.553,736.253 578.673,724.243 "
   id="polygon395" />
			<polygon
   fill="#cbe6ed"
   points="544.477,790.252 539.291,758.234 279.382,761.604 301.939,744.362 557.586,740.74 558.06,742.043 568.097,769.77 "
   id="polygon397" />
			<polygon
   fill="none"
   stroke="#212639"
   stroke-miterlimit="10"
   points="263.99,836.143 304.359,836.143 304.359,797.138 265.859,799.562 "
   id="polygon399" />
			<polygon
   fill="none"
   stroke="#212639"
   stroke-miterlimit="10"
   points="329.522,820.638 391.727,820.638 391.727,795.638 329.522,797.138 "
   id="polygon401" />
			<polygon
   fill="#c9a0be"
   points="382.359,833.138 408.859,833.138 404.898,808.138 382.359,813.138 "
   id="polygon403" />
			<rect
   x="269.27899"
   y="803.138"
   fill="none"
   stroke="#212639"
   stroke-miterlimit="10"
   width="30.700001"
   height="28"
   id="rect405" />
			<polygon
   fill="none"
   stroke="#212639"
   stroke-miterlimit="10"
   points="450.817,866.138 510.859,866.138 510.859,856.638 450.817,859.638 "
   id="polygon407" />
			<rect
   x="470.35901"
   y="872.138"
   fill="#f65448"
   width="40.5"
   height="7.5"
   id="rect409" />
			<line
   fill="none"
   stroke="#212639"
   stroke-miterlimit="10"
   x1="450.81699"
   y1="799.56201"
   x2="506.35901"
   y2="799.56201"
   id="line411" />
			<line
   fill="none"
   stroke="#212639"
   stroke-miterlimit="10"
   x1="449.83301"
   y1="806.29797"
   x2="505.375"
   y2="806.29797"
   id="line413" />
			<line
   fill="none"
   stroke="#212639"
   stroke-miterlimit="10"
   x1="449.83301"
   y1="811.138"
   x2="505.375"
   y2="811.138"
   id="line415" />
			<line
   fill="none"
   stroke="#212639"
   stroke-miterlimit="10"
   x1="449.83301"
   y1="815.97803"
   x2="505.375"
   y2="815.97803"
   id="line417" />
			<line
   fill="none"
   stroke="#212639"
   stroke-miterlimit="10"
   x1="449.83301"
   y1="820.81702"
   x2="505.375"
   y2="820.81702"
   id="line419" />
			<line
   fill="none"
   stroke="#212639"
   stroke-miterlimit="10"
   x1="474.85901"
   y1="825.65698"
   x2="505.375"
   y2="825.65698"
   id="line421" />
			<line
   fill="none"
   stroke="#212639"
   stroke-miterlimit="10"
   x1="474.85901"
   y1="830.49701"
   x2="505.375"
   y2="830.49701"
   id="line423" />
			<line
   fill="none"
   stroke="#212639"
   stroke-miterlimit="10"
   x1="539.29102"
   y1="758.23401"
   x2="557.586"
   y2="740.73999"
   id="line425" />
		</g>
		
	</g>
</g>
</svg>
